<?xml version="1.0" encoding="utf-8"?>
<!-- Generator: Adobe Illustrator 23.0.3, SVG Export Plug-In . SVG Version: 6.00 Build 0)  -->
<svg version="1.2" baseProfile="tiny" id="Layer_1" xmlns="http://www.w3.org/2000/svg" xmlns:xlink="http://www.w3.org/1999/xlink"
	 x="0px" y="0px" width="884.7px" height="518.4px" viewBox="0 0 884.7 518.4" xml:space="preserve">
<line fill="none" stroke="#231F20" stroke-miterlimit="10" x1="33.3" y1="32.9" x2="193.7" y2="32.9"/>
<line fill="none" stroke="#231F20" stroke-miterlimit="10" x1="193.7" y1="395.6" x2="193.7" y2="32.9"/>
<line fill="none" stroke="#231F20" stroke-miterlimit="10" x1="207.3" y1="395.6" x2="207.3" y2="32.9"/>
<line fill="none" stroke="#231F20" stroke-miterlimit="10" x1="33.3" y1="483.8" x2="33.3" y2="32.9"/>
<line fill="none" stroke="#231F20" stroke-miterlimit="10" x1="845" y1="483.8" x2="845" y2="32.9"/>
<line fill="none" stroke="#231F20" stroke-miterlimit="10" x1="350.4" y1="483.8" x2="33.3" y2="483.8"/>
<line fill="none" stroke="#231F20" stroke-miterlimit="10" x1="504.5" y1="32.9" x2="207.3" y2="32.9"/>
<line fill="none" stroke="#231F20" stroke-miterlimit="10" x1="845" y1="32.9" x2="518.1" y2="32.9"/>
<line fill="none" stroke="#231F20" stroke-miterlimit="10" x1="207.3" y1="395.6" x2="193.7" y2="395.6"/>
<line fill="none" stroke="#231F20" stroke-miterlimit="10" x1="504.5" y1="395.6" x2="504.5" y2="32.9"/>
<line fill="none" stroke="#231F20" stroke-miterlimit="10" x1="518.1" y1="395.6" x2="518.1" y2="32.9"/>
<line fill="none" stroke="#231F20" stroke-miterlimit="10" x1="518.1" y1="395.6" x2="504.5" y2="395.6"/>
<text transform="matrix(1 0 0 1 693.1522 458.58)" font-family="'MyriadPro-Regular'" font-size="12px">R3</text>
<text transform="matrix(1 0 0 1 193.727 471.8112)" font-family="'MyriadPro-Regular'" font-size="12px">C</text>
<text transform="matrix(1 0 0 1 534.2993 412.3826)" font-family="'MyriadPro-Regular'" font-size="12px">C</text>
<text transform="matrix(1 0 0 1 831.455 362.0969)" font-family="'MyriadPro-Regular'" font-size="12px">C</text>
<text transform="matrix(1 0 0 1 216.8573 194.4836)" font-family="'MyriadPro-Regular'" font-size="12px">C</text>
<text transform="matrix(1 0 0 1 406.4794 56.5112)" font-family="'MyriadPro-Regular'" font-size="12px">C</text>
<text transform="matrix(1 0 0 1 534.2993 53.8387)" font-family="'MyriadPro-Regular'" font-size="12px">R2</text>
<text transform="matrix(1 0 0 1 172.4516 53.8388)" font-family="'MyriadPro-Regular'" font-size="12px">R1</text>
<text transform="matrix(1 0 0 1 759.8963 72.7881)" font-family="'MyriadPro-Regular'" font-size="12px">C</text>
<text transform="matrix(1 0 0 1 39.272 264.8984)" font-family="'MyriadPro-Regular'" font-size="12px">C</text>
<text transform="matrix(1 0 0 1 319.6383 375.3461)" font-family="'MyriadPro-Regular'" font-size="12px">S40</text>
<text transform="matrix(1 0 0 1 753.1038 390.2033)" font-family="'MyriadPro-Regular'" font-size="12px">S50</text>
<text transform="matrix(1 0 0 1 108.4511 401.4372)" font-family="'MyriadPro-Regular'" font-size="12px">S50</text>
<text transform="matrix(1 0 0 1 425.3447 243.8205)" font-family="'MyriadPro-Regular'" font-size="12px">S50</text>
<line fill="none" stroke="#231F20" stroke-miterlimit="10" x1="350.4" y1="483.8" x2="350.4" y2="121.1"/>
<line fill="none" stroke="#231F20" stroke-miterlimit="10" x1="364" y1="483.8" x2="364" y2="121.1"/>
<line fill="none" stroke="#231F20" stroke-miterlimit="10" x1="350.4" y1="121.1" x2="364" y2="121.1"/>
<line fill="none" stroke="#231F20" stroke-miterlimit="10" x1="364" y1="483.8" x2="661.2" y2="483.8"/>
<line fill="none" stroke="#231F20" stroke-miterlimit="10" x1="674.8" y1="483.8" x2="845" y2="483.8"/>
<line fill="none" stroke="#231F20" stroke-miterlimit="10" x1="661.2" y1="483.8" x2="661.2" y2="121.1"/>
<line fill="none" stroke="#231F20" stroke-miterlimit="10" x1="674.8" y1="483.8" x2="674.8" y2="121.1"/>
<line fill="none" stroke="#231F20" stroke-miterlimit="10" x1="661.2" y1="121.1" x2="674.8" y2="121.1"/>
</svg>
